<?xml version="1.0" encoding="UTF-8"?>
<svg xmlns="http://www.w3.org/2000/svg" version="1.1" viewBox="0 0 38 38">
  <defs>
    <style>
      .cls-1 {
        fill: none;
        stroke: #d8d8d8;
        stroke-width: .5px;
      }

      .cls-2 {
        fill: #d8d8d8;
      }
    </style>
  </defs>
  <!-- Generator: Adobe Illustrator 28.7.1, SVG Export Plug-In . SVG Version: 1.2.0 Build 142)  -->
  <g>
    <g id="Layer_1">
      <g id="Accent2">
        <line x1=".5" y1="18.5" x2="10.1" y2="2.5"/>
        <path class="cls-2" d="M.5,18.5c.1-.8.3-1.6.6-2.4l1.2-2,2.4-4,2.4-4,1.2-2c.6-.5,1.2-1.1,1.8-1.6-.1.8-.4,1.6-.6,2.4l-1.2,2-2.4,4-2.4,4-1.2,2c-.6.6-1.2,1.1-1.8,1.6Z"/>
      </g>
      <g id="Accent1">
        <path class="cls-2" d="M10.1,35.5c.7-.3,1.5-.5,2.2-.8h2.2s4.4,0,4.4,0h6.7c.7.2,1.5.4,2.2.8-.7.3-1.5.5-2.2.8h-2.2s-4.5,0-4.5,0h-6.7c-.7-.2-1.5-.4-2.2-.8,0,0,.7.3,0,0Z"/>
      </g>
      <polygon id="Hex" class="cls-1" points="10.1 35.5 27.9 35.5 37.5 18.5 27.9 2.5 10.1 2.5 .5 18.5 10.1 35.5"/>
    </g>
  </g>
</svg>