<?xml version="1.0" encoding="UTF-8"?>
<svg width="67px" height="75px" viewBox="0 0 67 75" version="1.1" xmlns="http://www.w3.org/2000/svg" xmlns:xlink="http://www.w3.org/1999/xlink">
    <title>Presence</title>
    <defs>
        <polygon id="path-1" points="1.50046954e-13 19.0400362 5.2332647e-14 54.6890902 32.5 73.7313433 65 54.6890902 64.9974215 19.0400362 32.4995702 2.92265353e-15"></polygon>
        <filter x="-10.4%" y="-9.2%" width="120.8%" height="118.4%" filterUnits="objectBoundingBox" id="filter-2">
            <feMorphology radius="2" operator="erode" in="SourceAlpha" result="shadowSpreadInner1"></feMorphology>
            <feGaussianBlur stdDeviation="5" in="shadowSpreadInner1" result="shadowBlurInner1"></feGaussianBlur>
            <feOffset dx="0" dy="1" in="shadowBlurInner1" result="shadowOffsetInner1"></feOffset>
            <feComposite in="shadowOffsetInner1" in2="SourceAlpha" operator="arithmetic" k2="-1" k3="1" result="shadowInnerInner1"></feComposite>
            <feColorMatrix values="0 0 0 0 0   0 0 0 0 0   0 0 0 0 0.819607843  0 0 0 1 0" type="matrix" in="shadowInnerInner1"></feColorMatrix>
        </filter>
    </defs>
    <g id="Abilities" stroke="none" stroke-width="1" fill="none" fill-rule="evenodd">
        <g id="Attributes-with-Inner-Glow" transform="translate(-317.000000, -55.000000)">
            <g id="Resilience" transform="translate(318.000000, 55.462687)">
                <g id="Path">
                    <use fill="black" fill-opacity="1" filter="url(#filter-2)" xlink:href="#path-1"></use>
                    <use stroke="#D8D8D8" stroke-width="0.5" xlink:href="#path-1"></use>
                </g>
                <polyline id="Path" stroke="#D8D8D8" points="3 53.6962199 32.5 71 62 53.6962199"></polyline>
                <polyline id="Path" stroke="#D8D8D8" transform="translate(32.500000, 11.348110) scale(1, -1) translate(-32.500000, -11.348110) " points="3 2.69621986 32.5 20 62 2.69621986"></polyline>
                <polygon id="Path-3" fill="#D8D8D8" points="1 20 7 28 7 46 1 54"></polygon>
                <polygon id="Path-3" fill="#D8D8D8" transform="translate(61.000000, 37.000000) scale(-1, 1) translate(-61.000000, -37.000000) " points="58 20 64 28 64 46 58 54"></polygon>
            </g>
        </g>
    </g>
</svg>